<svg id="Layer_1" data-name="Layer 1" xmlns="http://www.w3.org/2000/svg" viewBox="0 0 1481.97 1481.97"><defs><style>.cls-1{fill:#1ed761;}.cls-2{fill-rule:evenodd;}</style></defs><title>spotify</title><circle class="cls-1" cx="648" cy="203.7" r="740.99" transform="translate(138.74 1055.15) rotate(-45)"/><path class="cls-2" d="M1189.52,58.48c-.21,53.65-56.47,86.5-103.59,59.84-32-18.08-64.66-34.46-98.73-48.12-67.69-27.14-137.84-45.4-209.55-58A1323.63,1323.63,0,0,0,626.9-5.52a1413.21,1413.21,0,0,0-157.83-.81C408.75-3.2,348.9,3.42,289.84,16.18c-21.79,4.7-43.33,10.64-64.88,16.4-13.22,3.53-26.24,4-39.41.13A68.8,68.8,0,0,1,136-31.77c-.83-29.36,17.29-56.66,45.75-66C202.61-104.69,224-110.08,245.4-115c53-12.25,106.69-19.82,160.84-24.76A1443.59,1443.59,0,0,1,579-145.08c142,4.07,281.23,24.83,416,71.35,54.94,19,107.82,42.51,158.08,71.83,17.92,10.46,29.94,25.19,34.52,45.57C1188.62,48.51,1188.88,53.54,1189.52,58.48Z" transform="translate(92.99 537.28)"/><path class="cls-2" d="M518.78,224c-84.64.36-171.34,10.85-256,36-13.8,4.09-27.64,4.37-41.16-1.11a57.13,57.13,0,0,1-35.55-54.29c.81-24.34,15.65-45.53,39.11-52.69,23.88-7.29,48.11-13.61,72.48-19,60-13.33,120.8-20.38,182.25-22.71,132.18-5,261.3,12.08,387.27,52.46C930.86,183,991.79,209.73,1049.35,244c2.86,1.71,5.7,3.45,8.55,5.18,30,18.34,33.59,55.26,19.28,78.78-16.37,26.9-50.41,35.26-78.7,19.31-16-9-31.73-18.39-48.05-26.7-74.79-38.13-154.09-62.84-236.38-78.42C650.69,230.12,586.74,224.26,518.78,224Z" transform="translate(92.99 537.28)"/><path class="cls-2" d="M532,349.49c97.42,1,192.73,14.2,285.22,45.39a757.43,757.43,0,0,1,146,67A124.5,124.5,0,0,1,975,469.46a45.68,45.68,0,0,1-46,78.21,117.89,117.89,0,0,1-12.24-6.77c-78.42-46.49-163-75.28-253-89a871.3,871.3,0,0,0-166.43-9.2c-72.1,2.84-143.29,12.84-213.72,28.44-7.11,1.57-14.43,3-21.67,3.08a44.19,44.19,0,0,1-44-36.2c-4.05-22.21,6.95-43,27.32-51.21a87.08,87.08,0,0,1,13.43-3.86c57.61-12.93,115.76-22.71,174.6-27.69C466.1,352.43,499.09,351.34,532,349.49Z" transform="translate(92.99 537.28)"/></svg>